P3
21 21
255
176 68 80 181 76 75 181 66 79 183 79 86 181 72 80 187 76 80 183 74 76 186 71 80 187 76 76 186 79 84 185 82 83 192 85 82 194 82 86 197 84 90 195 84 88 202 85 83 189 91 100 197 89 87 194 93 90 197 91 95 199 90 83 
177 73 81 178 76 88 180 74 81 184 73 82 179 75 76 184 75 81 181 79 82 187 77 85 189 77 83 194 82 83 191 82 86 191 86 89 200 82 81 198 90 88 200 85 84 200 94 89 193 94 100 197 93 92 200 92 85 201 88 89 202 91 85 
176 69 84 179 71 76 181 70 76 184 71 82 180 73 78 184 72 82 182 77 88 185 82 87 186 86 96 189 80 86 193 78 80 192 79 80 191 86 82 197 83 86 198 82 81 201 88 87 198 91 89 197 85 89 196 88 86 197 87 90 203 87 85 
181 72 78 188 75 77 182 72 83 185 70 78 182 73 82 183 79 89 187 79 86 188 72 80 190 77 85 192 76 78 195 80 81 195 85 82 192 85 87 196 83 86 199 83 86 193 86 91 199 90 95 200 91 87 193 89 93 200 97 104 202 92 86 
177 69 77 182 66 80 182 69 81 182 67 79 185 78 90 187 78 82 187 76 83 187 83 91 188 72 83 191 82 87 194 83 86 194 81 81 191 79 82 201 83 82 196 80 81 196 84 86 200 90 92 194 81 83 200 90 87 204 86 82 206 91 89 
177 63 76 186 71 76 181 70 78 180 70 78 181 75 85 182 75 78 185 77 84 184 81 91 188 78 79 189 84 90 192 81 80 198 83 82 192 85 96 198 85 84 195 83 87 196 86 85 197 91 86 202 88 93 200 89 86 200 82 82 203 89 89 
179 75 87 177 71 84 183 73 80 185 65 75 184 76 85 183 76 82 186 77 87 185 79 85 184 86 91 185 79 86 192 74 80 189 84 88 193 86 93 191 89 90 197 82 85 196 84 87 194 86 85 200 88 96 203 86 88 198 86 81 197 87 90 
178 71 81 176 75 80 181 72 80 184 72 85 182 79 88 182 74 83 184 75 78 188 82 88 192 80 84 184 79 89 184 80 87 186 83 85 190 89 93 190 86 88 191 79 86 192 85 88 201 91 88 200 90 96 195 81 81 196 89 85 198 89 91 
177 65 77 171 68 79 181 70 83 183 67 77 177 73 83 183 77 86 182 77 77 186 79 86 190 77 83 189 86 84 190 83 84 193 81 84 196 78 80 194 87 85 195 85 87 196 80 85 197 93 87 195 88 95 202 86 83 196 87 89 198 85 85 
174 63 75 173 68 79 179 70 81 181 70 80 182 69 78 183 82 81 187 81 84 180 77 84 187 81 83 186 80 85 193 85 87 194 84 85 197 82 81 187 86 94 196 84 87 193 83 91 200 87 83 195 91 102 193 86 85 193 83 94 197 90 91 
174 78 83 177 68 79 183 72 78 182 71 79 185 71 78 189 75 78 187 87 83 188 78 87 190 83 85 189 84 84 194 85 85 194 79 85 195 79 85 195 89 85 195 88 88 193 84 91 200 87 90 194 85 82 195 92 98 199 89 90 193 91 91 
174 69 82 177 69 77 178 64 72 181 70 78 185 66 77 185 68 77 192 70 77 186 76 88 194 76 82 185 78 87 192 81 82 194 80 80 195 84 88 197 91 90 193 89 92 191 90 97 193 85 81 192 88 92 195 88 91 199 89 87 196 86 91 
176 72 80 182 69 74 183 68 74 185 71 75 185 71 79 187 70 76 186 77 80 190 79 82 190 76 79 188 80 81 188 83 87 192 82 84 195 78 85 200 89 87 201 86 85 196 90 82 197 89 88 195 91 88 193 84 84 199 85 84 197 87 91 
177 77 84 179 73 78 182 66 76 177 74 73 183 75 84 186 76 81 189 72 81 186 79 83 184 75 83 190 80 80 185 82 94 188 80 87 191 82 83 199 91 99 204 90 86 199 86 83 200 90 90 203 86 82 198 87 86 200 81 81 199 81 83 
174 68 81 181 66 75 180 67 80 181 74 78 184 76 81 184 72 80 190 70 80 183 77 80 193 75 78 185 82 92 189 81 87 192 87 96 197 83 86 195 81 88 200 87 88 197 82 84 200 86 86 196 90 92 203 88 87 199 86 88 196 89 93 
176 75 87 182 69 77 181 69 82 182 76 79 188 82 88 187 75 81 188 71 83 188 75 85 192 76 79 190 86 87 196 86 94 194 85 92 197 82 86 200 84 85 197 88 83 198 86 89 198 88 90 197 80 83 197 85 83 202 87 95 198 84 84 
173 71 77 185 72 82 182 68 81 190 74 79 184 86 96 183 77 84 184 80 87 185 76 81 187 86 98 194 83 89 189 84 91 188 81 97 196 80 87 199 86 84 201 92 93 204 86 82 197 84 87 201 89 86 198 89 84 203 88 93 206 86 81 
179 70 73 179 74 81 178 68 77 190 73 75 184 83 89 184 72 80 185 79 86 185 78 85 185 79 87 192 80 83 189 82 76 195 78 93 192 87 84 199 86 82 203 87 85 206 86 80 194 87 92 197 87 87 200 89 87 200 93 92 197 83 91 
180 71 77 180 72 78 189 71 77 190 72 78 183 82 82 185 78 87 190 80 83 189 81 91 190 76 83 191 77 81 197 77 78 192 71 82 193 76 83 203 82 87 199 84 80 199 88 83 196 89 94 199 94 89 200 88 89 195 87 88 195 91 89 
181 66 73 177 73 76 189 71 77 195 68 71 186 79 84 186 80 80 194 81 85 192 78 86 194 81 78 191 78 82 193 77 82 193 77 80 193 79 82 196 87 90 200 84 83 202 84 87 201 84 85 200 88 89 202 86 85 200 81 85 200 83 84 
184 69 77 182 69 77 188 76 82 190 73 77 196 77 74 186 77 82 187 81 91 191 76 84 198 78 83 191 84 83 191 74 82 193 83 84 196 82 87 202 86 86 204 86 91 197 92 101 200 88 86 199 92 89 201 90 92 201 89 95 202 89 86 
